HIERARCHY
ROOT Hips
{
	OFFSET 0.000000 0.000000 0.000000
	CHANNELS 6 Xposition Yposition Zposition Xrotation Yrotation Zrotation
	JOINT LeftUpLeg_virtual
	{
		OFFSET 0.000000 0.000000 0.000000
		CHANNELS 3 Xrotation Yrotation Zrotation
		JOINT LeftUpLeg
		{
			OFFSET 10.205400 -3.823500 0.155100
			CHANNELS 3 Xrotation Yrotation Zrotation
			JOINT LeftLeg
			{
				OFFSET 0.708757 -12.982077 0.567790
				CHANNELS 3 Xrotation Yrotation Zrotation
				JOINT LeftFoot
				{
					OFFSET -0.708756 -10.717838 -2.184338
					CHANNELS 3 Xrotation Yrotation Zrotation
					JOINT LeftToeBase
					{
						OFFSET 0.108149 -7.191104 7.560241
						CHANNELS 3 Xrotation Yrotation Zrotation
						JOINT LeftToe_End
						{
							OFFSET 0.070230 0.081724 4.490308
							CHANNELS 3 Xrotation Yrotation Zrotation
							End Site
							{
								OFFSET 0 0 0
							}
						}
					}
				}
			}
		}
	}
	JOINT RightUpLeg_virtual
	{
		OFFSET 0.000000 0.000000 0.000000
		CHANNELS 3 Xrotation Yrotation Zrotation
		JOINT RightUpLeg
		{
			OFFSET -10.205400 -3.823500 0.005500
			CHANNELS 3 Xrotation Yrotation Zrotation
			JOINT RightLeg
			{
				OFFSET -0.708756 -12.982134 0.610632
				CHANNELS 3 Xrotation Yrotation Zrotation
				JOINT RightFoot
				{
					OFFSET 0.708754 -10.717769 -1.945823
					CHANNELS 3 Xrotation Yrotation Zrotation
					JOINT RightToeBase
					{
						OFFSET -0.108140 -7.191069 7.372968
						CHANNELS 3 Xrotation Yrotation Zrotation
						JOINT RightToe_End
						{
							OFFSET -0.070227 0.081735 4.479403
							CHANNELS 3 Xrotation Yrotation Zrotation
							End Site
							{
								OFFSET 0 0 0
							}
						}
					}
				}
			}
		}
	}
	JOINT Spine_virtual
	{
		OFFSET 0.000000 0.000000 0.000000
		CHANNELS 3 Xrotation Yrotation Zrotation
		JOINT Spine
		{
			OFFSET 0.000000 6.876099 0.125700
			CHANNELS 3 Xrotation Yrotation Zrotation
			JOINT Spine1
			{
				OFFSET 0.000000 5.730043 0.104720
				CHANNELS 3 Xrotation Yrotation Zrotation
				JOINT Spine1_split
				{
					OFFSET 0.000000 5.730043 0.104720
					CHANNELS 3 Xrotation Yrotation Zrotation
					JOINT Spine2
					{
						OFFSET 0.000000 5.730043 0.104720
						CHANNELS 3 Xrotation Yrotation Zrotation
						JOINT Neck_virtual
						{
							OFFSET 0.000000 0.000000 0.000000
							CHANNELS 3 Xrotation Yrotation Zrotation
							JOINT Neck
							{
								OFFSET 0.000000 10.314075 0.188496
								CHANNELS 3 Xrotation Yrotation Zrotation
								JOINT Head
								{
									OFFSET 0.000000 7.643700 -2.377400
									CHANNELS 3 Xrotation Yrotation Zrotation
									JOINT HeadTop_End
									{
										OFFSET 0.000000 43.788605 -13.619600
										CHANNELS 3 Xrotation Yrotation Zrotation
										End Site
										{
											OFFSET 0 0 0
										}
									}
								}
							}
						}
						JOINT LeftShoulder_virtual
						{
							OFFSET 0.000000 0.000000 0.000000
							CHANNELS 3 Xrotation Yrotation Zrotation
							JOINT LeftShoulder
							{
								OFFSET 2.196100 4.412489 0.087492
								CHANNELS 3 Xrotation Yrotation Zrotation
								JOINT LeftShoulder_split
								{
									OFFSET 2.196100 4.412489 0.087492
									CHANNELS 3 Xrotation Yrotation Zrotation
									JOINT LeftArm
									{
										OFFSET 8.771219 -2.981674 -0.026999
										CHANNELS 3 Xrotation Yrotation Zrotation
										JOINT LeftForeArm
										{
											OFFSET 8.512804 0.000000 -0.000000
											CHANNELS 3 Xrotation Yrotation Zrotation
											JOINT LeftHand
											{
												OFFSET 18.484802 0.000000 -0.000000
												CHANNELS 3 Xrotation Yrotation Zrotation
												End Site
												{
													OFFSET 0 0 0
												}
											}
										}
									}
								}
							}
						}
						JOINT RightShoulder_virtual
						{
							OFFSET 0.000000 0.000000 0.000000
							CHANNELS 3 Xrotation Yrotation Zrotation
							JOINT RightShoulder
							{
								OFFSET -2.196100 4.412496 0.070690
								CHANNELS 3 Xrotation Yrotation Zrotation
								JOINT RightShoulder_split
								{
									OFFSET -2.196100 4.412496 0.070690
									CHANNELS 3 Xrotation Yrotation Zrotation
									JOINT RightArm
									{
										OFFSET -8.771282 -2.981682 -0.094208
										CHANNELS 3 Xrotation Yrotation Zrotation
										JOINT RightForeArm
										{
											OFFSET -8.494598 0.000000 0.000000
											CHANNELS 3 Xrotation Yrotation Zrotation
											JOINT RightHand
											{
												OFFSET -18.483803 0.000000 0.000001
												CHANNELS 3 Xrotation Yrotation Zrotation
												End Site
												{
													OFFSET 0 0 0
												}
											}
										}
									}
								}
							}
						}
					}
				}
			}
		}
	}
}
MOTION
Frames: 11
Frame Time: 0.03333333
6.209706 6.036659 -3.422884 0.000000 0.000000 0.000000 -79.963183 59.894270 -7.094049 -93.436701 3.307422 10.310607 97.207321 2.343148 -4.387464 8.699408 0.447598 5.320725 7.363603 0.683714 0.380661 0.000000 0.000000 0.000000 -87.859940 65.679714 0.471375 -19.118996 12.503018 10.258113 83.317263 -1.918829 -2.302930 20.887787 -3.998410 8.606613 -7.854930 0.326767 0.703443 0.000000 0.000000 0.000000 -78.233417 61.986419 -10.337138 15.347418 -6.872130 -6.750604 11.362903 -4.145874 -4.903502 0.728924 0.165329 0.493400 0.000000 0.000000 0.000000 10.144684 -5.397526 -3.511733 -3.210384 6.408780 -17.096346 -28.738185 13.548942 -14.140154 0.000000 0.000000 0.000000 10.398204 -4.784638 -4.076914 3.546414 -7.743345 30.527148 -3.246566 -0.367499 -0.937604 -89.265470 26.315290 -57.263022 2.306742 -30.003320 1.086442 0.000000 0.000000 0.000000 11.389786 -4.934302 -3.824692 5.203145 11.657461 -17.683194 14.590930 3.510195 0.084300 -47.310852 33.337436 105.131009 175.694855 73.078257 -175.526764 0.000000 0.000000 0.000000 
6.237341 6.040596 -3.490784 0.000000 0.000000 0.000000 -79.433311 59.779086 -7.352570 -93.636293 3.478425 10.359249 96.856365 2.095821 -4.442649 8.469369 0.006297 5.146829 7.360280 0.661082 0.615788 0.000000 0.000000 0.000000 -87.235292 65.340499 -0.279225 -19.187306 12.274921 10.305705 83.553643 -1.970011 -2.373522 20.931323 -3.951106 8.547726 -7.910694 0.374268 0.646154 0.000000 0.000000 0.000000 -77.826024 61.921894 -10.456689 15.234088 -6.845560 -6.695672 11.375331 -4.224993 -4.845347 0.904462 0.486173 0.374789 0.000000 0.000000 0.000000 10.005299 -5.500200 -3.476696 -3.109390 6.343400 -17.123291 -28.577286 13.244096 -14.174832 0.000000 0.000000 0.000000 10.402190 -4.869086 -3.982076 3.420701 -7.571120 30.221125 -2.830041 -0.627541 -0.401948 -89.242692 26.057177 -57.466268 2.234300 -30.255320 0.914999 0.000000 0.000000 0.000000 11.338878 -5.038358 -3.779867 5.179048 11.733171 -17.436395 14.953676 3.456422 0.142966 -47.347817 33.351407 105.263440 175.842892 72.999395 -175.652603 0.000000 0.000000 0.000000 
6.263204 6.043327 -3.558895 0.000000 0.000000 0.000000 -79.124217 59.677255 -7.507239 -93.791434 3.773724 10.513327 96.440277 1.797326 -4.555504 7.804494 -0.441547 5.163444 7.423809 0.625659 0.768507 0.000000 0.000000 0.000000 -86.640738 64.994523 -1.001493 -19.136824 12.074279 10.381320 83.750448 -1.919893 -2.481104 20.937311 -3.839408 8.787699 -8.127980 0.384773 0.567996 0.000000 0.000000 0.000000 -77.617033 61.991241 -10.350728 15.125421 -6.815673 -6.577356 11.357629 -4.325070 -4.736408 0.813991 0.831925 0.050770 0.000000 0.000000 0.000000 9.827667 -5.624551 -3.403337 -2.717484 6.181075 -17.299739 -28.356639 12.758432 -14.175011 0.000000 0.000000 0.000000 10.374904 -4.970201 -3.830116 3.218798 -7.319985 29.887528 -2.336249 -0.828622 0.284769 -89.006907 25.660404 -58.021986 2.326413 -29.915187 0.815778 0.000000 0.000000 0.000000 11.258011 -5.146572 -3.642653 5.095558 11.752351 -17.123926 15.114691 3.476136 0.129144 -47.255600 33.675449 105.262846 175.876483 73.358083 -175.770929 0.000000 0.000000 0.000000 
6.261475 6.050905 -3.599670 0.000000 0.000000 0.000000 -79.084035 59.638241 -7.477807 -93.844907 4.132000 10.744049 96.083570 1.506105 -4.700373 6.758023 -0.814946 5.454748 7.588792 0.578833 0.783250 0.000000 0.000000 0.000000 -86.186660 64.696932 -1.552062 -18.928978 11.894347 10.474777 83.728345 -1.842053 -2.651600 20.702577 -3.790522 9.177886 -8.345962 0.365153 0.510704 0.000000 0.000000 0.000000 -77.618454 62.203441 -10.034910 15.033349 -6.754924 -6.444354 11.297772 -4.406299 -4.612199 0.654395 1.137320 -0.208152 0.000000 0.000000 0.000000 9.640871 -5.726677 -3.319152 -2.108071 5.899521 -17.608856 -28.105745 12.154328 -14.162841 0.000000 0.000000 0.000000 10.296404 -5.052383 -3.662666 2.995511 -7.050372 29.567605 -2.034397 -0.794695 0.787949 -88.712327 25.098420 -58.678169 2.535704 -29.179862 0.778291 0.000000 0.000000 0.000000 11.140125 -5.222071 -3.475389 5.002257 11.661481 -16.855134 14.995535 3.632875 0.114763 -47.131608 34.271099 105.162497 175.904924 73.881323 -175.971245 0.000000 0.000000 0.000000 
6.244798 6.074007 -3.607765 0.000000 0.000000 0.000000 -79.229416 59.628535 -7.310953 -93.797028 4.435604 11.006499 95.794872 1.180112 -4.816775 5.532169 -1.137113 5.831210 7.788883 0.534523 0.678306 0.000000 0.000000 0.000000 -85.872355 64.437876 -1.898992 -18.650878 11.703628 10.528425 83.558656 -1.766217 -2.866348 20.321536 -3.835301 9.694980 -8.422573 0.317508 0.533474 0.000000 0.000000 0.000000 -77.852190 62.490398 -9.542660 14.952903 -6.642231 -6.333538 11.188751 -4.442801 -4.496367 0.608712 1.282526 -0.351617 0.000000 0.000000 0.000000 9.448964 -5.761679 -3.244311 -1.394767 5.522862 -18.007411 -27.900498 11.541514 -14.151448 0.000000 0.000000 0.000000 10.146209 -5.092545 -3.519985 2.810494 -6.853797 29.268054 -1.836448 -0.421016 1.110648 -88.453818 24.301215 -59.210377 2.775974 -28.385266 0.753978 0.000000 0.000000 0.000000 10.970524 -5.237188 -3.329194 4.936117 11.495097 -16.645600 14.613478 3.819615 0.122909 -46.914804 35.058637 104.973116 175.971204 74.304535 -176.241898 0.000000 0.000000 0.000000 
6.226130 6.112843 -3.620766 0.000000 0.000000 0.000000 -79.485609 59.615831 -7.068093 -93.686317 4.615900 11.226352 95.536445 0.815998 -4.882072 4.240237 -1.464594 6.235602 7.888476 0.496458 0.573959 0.000000 0.000000 0.000000 -85.862643 64.300617 -1.888152 -18.393587 11.447085 10.509133 83.436170 -1.680846 -3.045971 20.114443 -3.935850 10.458592 -8.471938 0.246583 0.650044 0.000000 0.000000 0.000000 -78.208685 62.757800 -8.978198 14.871849 -6.480586 -6.270112 11.033607 -4.428886 -4.413348 0.483131 1.158902 -0.363491 0.000000 0.000000 0.000000 9.287186 -5.718123 -3.184741 -0.721030 5.157957 -18.436077 -27.821391 11.001290 -14.149959 0.000000 0.000000 0.000000 9.916618 -5.067939 -3.440831 2.697952 -6.781900 28.988467 -1.743135 0.184216 1.120710 -88.282469 23.193437 -59.447241 3.037080 -27.866882 0.716468 0.000000 0.000000 0.000000 10.761892 -5.183780 -3.233580 4.926320 11.358186 -16.435404 14.127295 3.916382 0.120079 -46.656684 35.908729 104.775034 176.119570 74.420478 -176.561169 0.000000 0.000000 0.000000 
6.207017 6.154793 -3.644154 0.000000 0.000000 0.000000 -79.907715 59.595395 -6.716028 -93.559631 4.682074 11.358400 95.294922 0.379852 -4.835554 3.008893 -1.860903 6.606077 7.875040 0.469537 0.531245 0.000000 0.000000 0.000000 -86.294119 64.342404 -1.399923 -18.205142 11.067993 10.442744 83.450295 -1.554039 -3.150629 20.161434 -4.021978 11.658064 -8.754439 0.168628 0.802268 0.000000 0.000000 0.000000 -78.741467 62.989890 -8.321177 14.818165 -6.298379 -6.260764 10.864072 -4.367182 -4.373537 0.412132 0.747010 -0.179366 0.000000 0.000000 0.000000 9.151415 -5.613977 -3.139933 -0.232177 4.877629 -18.855997 -27.857193 10.645016 -14.075204 0.000000 0.000000 0.000000 9.625444 -4.994245 -3.435238 2.654711 -6.859768 28.711865 -1.843824 0.882471 0.828589 -87.982993 21.757523 -59.487205 3.208528 -27.860946 0.621514 0.000000 0.000000 0.000000 10.519338 -5.075844 -3.182927 5.007289 11.400951 -16.136669 13.572980 3.863055 0.124896 -46.414069 36.745386 104.565367 176.503180 74.179468 -177.017507 0.000000 0.000000 0.000000 
6.209505 6.183529 -3.673613 0.000000 0.000000 0.000000 -80.424863 59.619362 -6.258371 -93.513281 4.616509 11.395906 95.184949 -0.135583 -4.643926 2.094886 -2.327263 6.834959 7.794935 0.461794 0.534330 0.000000 0.000000 0.000000 -87.129616 64.487641 -0.550417 -18.062732 10.562333 10.354419 83.658459 -1.358488 -3.179934 20.130307 -4.097661 13.184272 -9.185711 0.121081 0.917537 0.000000 0.000000 0.000000 -79.425948 63.127409 -7.680738 14.791603 -6.138261 -6.265811 10.705625 -4.300200 -4.375144 0.432336 0.199831 -0.044195 0.000000 0.000000 0.000000 9.030354 -5.493584 -3.095478 -0.041621 4.774647 -19.214644 -27.953142 10.470904 -13.840251 0.000000 0.000000 0.000000 9.312115 -4.904645 -3.497129 2.656011 -7.062993 28.369252 -1.970942 1.520901 0.466321 -87.564166 20.092256 -59.503433 3.349153 -28.269627 0.475333 0.000000 0.000000 0.000000 10.280675 -4.944891 -3.148369 5.167513 11.766051 -15.616138 12.991232 3.590984 0.053677 -46.173902 37.385112 104.297351 177.096027 73.758543 -177.558117 0.000000 0.000000 0.000000 
6.238613 6.186520 -3.687773 0.000000 0.000000 0.000000 -80.999978 59.705723 -5.716940 -93.542596 4.436860 11.317674 95.339223 -0.560118 -4.325461 1.599396 -2.786784 7.082913 7.688805 0.478389 0.521751 0.000000 0.000000 0.000000 -88.167272 64.627673 0.415830 -17.915883 9.905045 10.247189 84.006341 -1.176044 -3.088550 19.719574 -4.280719 14.786852 -9.325734 0.152968 0.931200 0.000000 0.000000 0.000000 -80.221453 63.138644 -7.157432 14.809173 -6.020169 -6.253786 10.580134 -4.260889 -4.406374 0.451140 -0.264333 0.053115 0.000000 0.000000 0.000000 8.936041 -5.402820 -3.050778 -0.184779 4.889161 -19.553518 -27.959504 10.385559 -13.361878 0.000000 0.000000 0.000000 9.050055 -4.833249 -3.594350 2.670546 -7.326410 27.982341 -2.016883 1.999429 0.322946 -87.047312 18.428991 -59.546443 3.522039 -28.958824 0.384706 0.000000 0.000000 0.000000 10.080006 -4.835625 -3.113849 5.365682 12.409065 -14.964359 12.391770 3.284752 -0.185798 -45.958741 37.727636 103.855034 177.869929 73.418537 -178.188229 0.000000 0.000000 0.000000 
6.291911 6.157591 -3.696363 0.000000 0.000000 0.000000 -81.550143 59.785834 -5.224728 -93.555724 4.157497 11.074296 95.741733 -0.714695 -3.887776 1.490167 -3.176966 7.493170 7.514356 0.522819 0.457560 0.000000 0.000000 0.000000 -89.335015 64.661858 1.396162 -17.751540 9.124050 10.120511 84.412614 -1.005539 -2.883057 18.912731 -4.607724 16.420881 -8.906752 0.272340 0.821257 0.000000 0.000000 0.000000 -81.119636 63.046580 -6.742804 14.918429 -5.946900 -6.190176 10.497605 -4.258116 -4.446855 0.589354 -0.465109 0.079245 0.000000 0.000000 0.000000 8.848260 -5.366046 -3.015884 -0.572130 5.183954 -19.920981 -27.651078 10.397464 -12.574284 0.000000 0.000000 0.000000 8.888485 -4.813197 -3.688716 2.683061 -7.583317 27.574150 -2.047923 2.424140 0.492386 -86.650539 17.018900 -59.706201 3.668881 -29.448268 0.383847 0.000000 0.000000 0.000000 9.939172 -4.782843 -3.078300 5.589905 13.223646 -14.316374 11.739061 3.091588 -0.643112 -45.639389 37.728609 103.208434 178.797741 73.356211 -178.923813 0.000000 0.000000 0.000000 
6.358604 6.116369 -3.693914 0.000000 0.000000 0.000000 -82.234303 59.870419 -4.662921 -93.488385 3.820669 10.677688 96.201357 -0.545410 -3.382773 1.691579 -3.544271 8.004731 7.210704 0.588852 0.371318 0.000000 0.000000 0.000000 -90.587542 64.592266 2.391973 -17.566147 8.336354 9.945184 84.766821 -0.766619 -2.686215 18.003484 -4.933352 18.350152 -8.484133 0.438683 0.579811 0.000000 0.000000 0.000000 -81.972440 62.820726 -6.565548 15.072592 -5.894960 -6.074615 10.456647 -4.303191 -4.447407 0.613575 -0.517904 0.022273 0.000000 0.000000 0.000000 8.795120 -5.388385 -2.992308 -1.059342 5.672679 -20.422192 -26.892504 10.477598 -11.518854 0.000000 0.000000 0.000000 8.855035 -4.842228 -3.719608 2.664650 -7.709274 27.148385 -2.047658 2.815224 0.843600 -86.554186 15.878925 -60.054001 3.829314 -29.511393 0.537526 0.000000 0.000000 0.000000 9.879560 -4.806877 -3.040343 5.762627 13.967083 -13.857926 11.126219 3.100754 -1.196169 -45.071537 37.395620 102.523892 179.714612 73.349641 -179.631106 0.000000 0.000000 0.000000 
